<svg  xmlns="http://www.w3.org/2000/svg"  xmlns:xlink="http://www.w3.org/1999/xlink"  width="NaN%" height="NaN%">
  <path fill-rule="evenodd"  fill="rgb(67, 160, 71)" d="M32.615,27.436 C29.724,28.320 26.777,28.698 23.778,28.611 C22.731,28.580 22.421,28.894 22.426,29.929 C22.459,36.230 22.418,42.532 22.454,48.833 C22.459,49.701 22.280,49.991 21.366,49.983 C18.552,49.959 18.551,50.000 18.550,47.145 C18.549,41.392 18.525,35.639 18.572,29.887 C18.580,28.891 18.339,28.575 17.319,28.622 C14.103,28.771 10.937,28.377 7.884,27.320 C1.292,25.037 -0.382,19.429 0.071,13.867 C0.111,13.383 0.306,13.201 0.766,13.189 C5.164,13.072 9.529,13.211 13.610,15.141 C17.934,17.187 19.607,20.922 19.989,25.447 C20.007,25.658 20.020,25.869 20.019,26.081 C20.017,26.412 20.077,26.658 20.496,26.647 C20.933,26.636 20.918,26.347 20.935,26.041 C21.005,24.775 21.093,23.512 21.430,22.280 C22.534,18.237 25.154,15.681 29.079,14.406 C31.409,13.649 33.792,13.200 36.251,13.217 C37.854,13.217 38.683,13.220 40.017,13.220 C40.711,13.220 40.952,13.604 40.978,14.177 C41.222,19.491 39.473,25.339 32.615,27.436 ZM21.895,11.476 C21.661,11.636 21.370,11.893 21.109,11.686 C20.966,11.572 20.976,11.221 20.975,10.977 C20.970,7.565 20.988,4.153 20.967,0.740 C20.961,-0.265 21.423,-0.068 21.952,0.293 C23.544,1.384 24.074,3.047 24.314,4.848 C24.364,5.221 24.322,5.605 24.322,5.984 C24.310,8.168 23.831,10.152 21.895,11.476 ZM19.962,5.891 C19.964,5.891 19.967,5.891 19.969,5.891 C19.969,7.494 19.979,9.096 19.961,10.699 C19.957,11.056 20.160,11.569 19.724,11.721 C19.384,11.840 19.020,11.507 18.727,11.268 C17.439,10.222 16.868,8.791 16.668,7.200 C16.365,4.807 16.696,2.564 18.441,0.736 C18.786,0.375 19.259,-0.094 19.723,0.072 C20.219,0.251 19.942,0.900 19.950,1.335 C19.980,2.853 19.962,4.372 19.962,5.891 Z"/>
</svg>